<?xml version="1.0" encoding="utf-8"?>
<svg width="131" height="40" viewBox="0 0 131 40" fill="none" xmlns="http://www.w3.org/2000/svg">
  <circle cx="17.021" cy="19.979" r="11.107" fill="url(#paint0_linear_425_166)" style="" transform="matrix(1.245035, 0, 0, 1.17969, -5.935239, -4.497227)"/>
  <path d="M 8.614 15.498 C 12.793 14.452 16.962 13.409 21.142 12.363 C 21.361 13.211 21.578 14.051 21.797 14.9 C 18.534 15.717 15.276 16.532 12.019 17.347 C 12.019 17.353 12.02 17.358 12.021 17.363 L 22.108 17.363 C 22.11 17.4 22.113 17.43 22.113 17.46 C 22.113 19.651 22.114 21.842 22.113 24.033 C 22.112 25.256 21.103 26.295 19.865 26.352 C 19.745 26.358 19.624 26.361 19.503 26.361 C 16.869 26.362 14.235 26.362 11.601 26.361 C 10.942 26.361 10.367 26.142 9.897 25.688 C 9.469 25.275 9.227 24.769 9.19 24.175 C 9.183 24.057 9.18 23.938 9.18 23.819 C 9.18 21.882 9.179 19.944 9.182 18.007 C 9.182 17.805 9.159 17.611 9.107 17.415 C 8.942 16.802 8.788 16.187 8.629 15.573 C 8.624 15.552 8.621 15.531 8.614 15.498 Z M 9.791 19.99 L 9.791 20.092 C 9.791 21.4 9.79 22.709 9.791 24.017 C 9.791 24.088 9.798 24.161 9.808 24.231 C 9.947 25.136 10.686 25.761 11.616 25.761 C 14.282 25.761 16.948 25.761 19.614 25.761 C 19.687 25.761 19.76 25.757 19.833 25.752 C 20.784 25.684 21.502 24.923 21.502 23.984 C 21.502 22.691 21.502 21.399 21.502 20.106 L 21.502 19.99 L 9.791 19.99 Z M 11.656 17.966 C 11.676 17.999 11.688 18.02 11.702 18.039 C 12.002 18.465 12.303 18.89 12.6 19.317 C 12.635 19.367 12.669 19.387 12.731 19.386 C 13.09 19.383 13.449 19.385 13.808 19.384 C 13.835 19.384 13.862 19.381 13.893 19.378 C 13.886 19.361 13.885 19.351 13.88 19.344 C 13.568 18.9 13.257 18.455 12.942 18.013 C 12.924 17.987 12.875 17.969 12.84 17.968 C 12.646 17.964 12.452 17.966 12.258 17.966 C 12.063 17.966 11.867 17.966 11.656 17.966 L 11.656 17.966 Z M 16.789 19.385 C 16.767 19.349 16.755 19.327 16.741 19.307 C 16.441 18.88 16.139 18.455 15.841 18.028 C 15.807 17.98 15.773 17.965 15.716 17.965 C 15.354 17.967 14.991 17.966 14.628 17.966 C 14.605 17.966 14.581 17.969 14.546 17.971 C 14.563 17.997 14.572 18.012 14.582 18.027 C 14.858 18.42 15.142 18.808 15.406 19.209 C 15.501 19.353 15.604 19.395 15.769 19.388 C 16.103 19.375 16.436 19.385 16.789 19.385 L 16.789 19.385 Z M 17.43 17.966 C 17.451 18 17.462 18.02 17.476 18.04 C 17.776 18.466 18.078 18.891 18.376 19.318 C 18.411 19.369 18.447 19.386 18.507 19.386 C 18.864 19.383 19.22 19.385 19.576 19.384 C 19.604 19.384 19.631 19.381 19.667 19.379 C 19.657 19.357 19.652 19.343 19.643 19.331 C 19.335 18.892 19.027 18.452 18.716 18.015 C 18.697 17.988 18.65 17.969 18.615 17.968 C 18.409 17.964 18.202 17.966 17.995 17.966 C 17.812 17.966 17.629 17.966 17.43 17.966 L 17.43 17.966 Z M 19.282 14.907 C 19.261 14.886 19.254 14.876 19.244 14.868 C 18.833 14.515 18.423 14.162 18.01 13.812 C 17.989 13.794 17.946 13.787 17.918 13.793 C 17.549 13.883 17.18 13.976 16.812 14.068 C 16.798 14.072 16.786 14.079 16.751 14.093 C 16.78 14.112 16.798 14.12 16.812 14.132 C 17.164 14.433 17.523 14.726 17.864 15.038 C 18.006 15.168 18.13 15.213 18.321 15.153 C 18.631 15.057 18.952 14.99 19.282 14.907 Z M 13.684 16.308 C 13.669 16.289 13.663 16.278 13.655 16.27 C 13.25 15.925 12.845 15.581 12.443 15.234 C 12.393 15.19 12.354 15.184 12.292 15.2 C 11.992 15.278 11.69 15.351 11.389 15.426 C 11.319 15.443 11.251 15.462 11.163 15.485 C 11.262 15.57 11.347 15.643 11.432 15.716 C 11.759 15.997 12.085 16.279 12.414 16.557 C 12.443 16.581 12.495 16.602 12.528 16.594 C 12.91 16.504 13.29 16.407 13.684 16.308 Z M 13.972 14.78 C 13.982 14.799 13.984 14.806 13.988 14.81 C 14.401 15.165 14.813 15.52 15.229 15.872 C 15.256 15.894 15.312 15.899 15.35 15.89 C 15.698 15.807 16.045 15.719 16.392 15.632 C 16.421 15.625 16.448 15.615 16.489 15.602 C 16.078 15.25 15.676 14.911 15.282 14.565 C 15.199 14.492 15.126 14.478 15.027 14.514 C 14.959 14.539 14.886 14.55 14.815 14.568 C 14.536 14.638 14.258 14.708 13.972 14.78 L 13.972 14.78 Z M 9.795 19.379 L 11.001 19.379 C 11 19.368 11.002 19.36 10.999 19.356 C 10.682 18.905 10.365 18.453 10.046 18.003 C 10.034 17.985 10.008 17.97 9.987 17.968 C 9.925 17.964 9.862 17.966 9.795 17.966 L 9.795 19.379 L 9.795 19.379 Z M 9.709 17.303 C 10.106 17.204 10.494 17.106 10.907 17.003 C 10.871 16.977 10.852 16.965 10.836 16.951 C 10.455 16.627 10.075 16.302 9.694 15.977 C 9.567 15.869 9.522 15.864 9.358 15.95 C 9.474 16.398 9.591 16.847 9.709 17.303 L 9.709 17.303 Z M 20.315 17.97 C 20.626 18.412 20.932 18.837 21.226 19.27 C 21.299 19.378 21.378 19.406 21.496 19.374 L 21.496 17.97 L 20.315 17.97 L 20.315 17.97 Z M 20.698 13.095 C 20.316 13.192 19.944 13.285 19.573 13.378 L 19.564 13.405 C 19.58 13.415 19.598 13.423 19.613 13.435 C 19.991 13.757 20.372 14.075 20.744 14.405 C 20.842 14.492 20.926 14.524 21.049 14.452 C 20.933 14.004 20.816 13.552 20.698 13.095 L 20.698 13.095 Z" fill="white" style=""/>
  <path d="M16.3951 20.7748C16.4152 20.7842 16.444 20.7953 16.4707 20.8103C17.2734 21.2656 18.076 21.7212 18.8785 22.1767C19.0242 22.2593 19.1698 22.3421 19.3153 22.4252C19.4252 22.4881 19.4256 22.572 19.3143 22.6353C18.4984 23.0994 17.6821 23.5628 16.8661 24.0263C16.7341 24.1013 16.6026 24.1768 16.4699 24.2506C16.3562 24.3139 16.2827 24.2744 16.2827 24.148C16.2821 23.0681 16.2827 21.9881 16.2819 20.9081C16.2819 20.8371 16.3027 20.7859 16.3951 20.7748Z" fill="white"/>
  <defs>
    <linearGradient id="paint0_linear_425_166" x1="4.66832" y1="24.1098" x2="34.1078" y2="13.9886" gradientUnits="userSpaceOnUse" gradientTransform="matrix(0.822757, 0, 0, 0.822756, 2.623147, 3.934853)">
      <stop stop-color="#F89E00"/>
      <stop offset="1" stop-color="#DA2F68"/>
    </linearGradient>
    <linearGradient gradientUnits="userSpaceOnUse" x1="78.432" y1="5.688" x2="78.432" y2="31.529" id="gradient-0" gradientTransform="matrix(1, 0, 0, 1, -1.914192, 1.914165)">
      <stop offset="0" style="stop-color: rgb(100% 41.176% 0.7843%)"/>
      <stop offset="1" style="stop-color: rgb(61.77% 21.251% 0%)"/>
    </linearGradient>
  </defs>
  <text style="fill: url('#gradient-0'); font-family: Cooper; font-size: 22px; white-space: pre;" transform="matrix(1.032962, 0, 0, 1.414286, -3.545598, -11.437151)" x="30.503" y="28.658">Moviesta</text>
</svg>